HIERARCHY
ROOT Root
{
  OFFSET 0.0 0.0 0.0
  CHANNELS 6 Xposition Yposition Zposition Zrotation Yrotation Xrotation
  JOINT Hips
  {
    OFFSET 0.0 100.0 0.0
    CHANNELS 6 Xposition Yposition Zposition Zrotation Yrotation Xrotation
    JOINT Spine1
    {
      OFFSET -0.013727 5.003763 -0.053727
      CHANNELS 3 Zrotation Yrotation Xrotation
      JOINT Spine2
      {
        OFFSET -0.0 7.125301 -0.029825
        CHANNELS 3 Zrotation Yrotation Xrotation
        JOINT Chest
        {
          OFFSET -1e-06 7.550063 -0.815971
          CHANNELS 3 Zrotation Yrotation Xrotation
          JOINT Neck1
          {
            OFFSET -0.181677 26.311295 -0.553348
            CHANNELS 3 Zrotation Yrotation Xrotation
            JOINT Neck2
            {
              OFFSET -3e-06 7.709397 2.302585
              CHANNELS 3 Zrotation Yrotation Xrotation
              JOINT Head
              {
                OFFSET -5e-06 6.128916 1.953709
                CHANNELS 3 Zrotation Yrotation Xrotation
                JOINT HeadEnd
                {
                  OFFSET 0.003598 16.065403 -1.835379
                  CHANNELS 3 Zrotation Yrotation Xrotation
                }
                JOINT Jaw
                {
                  OFFSET 0.002637 0.475592 3.094941
                  CHANNELS 3 Zrotation Yrotation Xrotation
                }
                JOINT LeftEye
                {
                  OFFSET 3.206381 5.380205 7.586883
                  CHANNELS 3 Zrotation Yrotation Xrotation
                }
                JOINT RightEye
                {
                  OFFSET -3.22244 5.361869 7.558234
                  CHANNELS 3 Zrotation Yrotation Xrotation
                }
              }
            }
          }
          JOINT LeftShoulder
          {
            OFFSET 1.621652 23.237164 5.113413
            CHANNELS 3 Zrotation Yrotation Xrotation
            JOINT LeftArm
            {
              OFFSET 14.919846 2e-06 -5.502326
              CHANNELS 3 Zrotation Yrotation Xrotation
              JOINT LeftForeArm
              {
                OFFSET 28.739307 0.0 -0.002588
                CHANNELS 3 Zrotation Yrotation Xrotation
                JOINT LeftHand
                {
                  OFFSET 27.093981 -1e-06 0.002609
                  CHANNELS 3 Zrotation Yrotation Xrotation
                  JOINT LeftHandThumb1
                  {
                    OFFSET 2.276482 -1.392045 3.191413
                    CHANNELS 3 Zrotation Yrotation Xrotation
                    JOINT LeftHandThumb2
                    {
                      OFFSET 4.012836 -1.828127 1.641654
                      CHANNELS 3 Zrotation Yrotation Xrotation
                      JOINT LeftHandThumb3
                      {
                        OFFSET 2.798515 0.0 -3e-06
                        CHANNELS 3 Zrotation Yrotation Xrotation
                        JOINT LeftHandThumbEnd
                        {
                          OFFSET 3.180793 -4e-06 4e-06
                          CHANNELS 3 Zrotation Yrotation Xrotation
                        }
                      }
                    }
                  }
                  JOINT LeftHandIndex1
                  {
                    OFFSET 3.247555 -0.531998 2.296169
                    CHANNELS 3 Zrotation Yrotation Xrotation
                    JOINT LeftHandIndex2
                    {
                      OFFSET 6.364578 0.01206 0.1786
                      CHANNELS 3 Zrotation Yrotation Xrotation
                      JOINT LeftHandIndex3
                      {
                        OFFSET 3.662364 0.0 0.0
                        CHANNELS 3 Zrotation Yrotation Xrotation
                        JOINT LeftHandIndex4
                        {
                          OFFSET 2.329242 4e-06 4e-06
                          CHANNELS 3 Zrotation Yrotation Xrotation
                          JOINT LeftHandIndexEnd
                          {
                            OFFSET 2.759615 -0.180537 -0.113024
                            CHANNELS 3 Zrotation Yrotation Xrotation
                          }
                        }
                      }
                    }
                  }
                  JOINT LeftHandMiddle1
                  {
                    OFFSET 3.163495 0.240981 1.000332
                    CHANNELS 3 Zrotation Yrotation Xrotation
                    JOINT LeftHandMiddle2
                    {
                      OFFSET 6.19078 -0.259278 -1.002548
                      CHANNELS 3 Zrotation Yrotation Xrotation
                      JOINT LeftHandMiddle3
                      {
                        OFFSET 4.35652 -4e-06 -1e-06
                        CHANNELS 3 Zrotation Yrotation Xrotation
                        JOINT LeftHandMiddle4
                        {
                          OFFSET 2.996877 -8e-06 0.0
                          CHANNELS 3 Zrotation Yrotation Xrotation
                          JOINT LeftHandMiddleEnd
                          {
                            OFFSET 2.304287 -0.294569 -0.031741
                            CHANNELS 3 Zrotation Yrotation Xrotation
                          }
                        }
                      }
                    }
                  }
                  JOINT LeftHandRing1
                  {
                    OFFSET 2.882643 -0.053652 -0.322543
                    CHANNELS 3 Zrotation Yrotation Xrotation
                    JOINT LeftHandRing2
                    {
                      OFFSET 5.854541 -0.486202 -1.373841
                      CHANNELS 3 Zrotation Yrotation Xrotation
                      JOINT LeftHandRing3
                      {
                        OFFSET 4.350578 0.0 3e-06
                        CHANNELS 3 Zrotation Yrotation Xrotation
                        JOINT LeftHandRing4
                        {
                          OFFSET 2.651321 7e-06 2e-06
                          CHANNELS 3 Zrotation Yrotation Xrotation
                          JOINT LeftHandRingEnd
                          {
                            OFFSET 1.936105 0.077687 -7.1e-05
                            CHANNELS 3 Zrotation Yrotation Xrotation
                          }
                        }
                      }
                    }
                  }
                  JOINT LeftHandPinky1
                  {
                    OFFSET 2.8655 -0.310005 -1.600378
                    CHANNELS 3 Zrotation Yrotation Xrotation
                    JOINT LeftHandPinky2
                    {
                      OFFSET 5.087849 -1.331141 -1.77123
                      CHANNELS 3 Zrotation Yrotation Xrotation
                      JOINT LeftHandPinky3
                      {
                        OFFSET 3.070974 4e-06 0.0
                        CHANNELS 3 Zrotation Yrotation Xrotation
                        JOINT LeftHandPinky4
                        {
                          OFFSET 1.549672 0.0 1e-06
                          CHANNELS 3 Zrotation Yrotation Xrotation
                          JOINT LeftHandPinkyEnd
                          {
                            OFFSET 1.944893 -0.157802 0.057219
                            CHANNELS 3 Zrotation Yrotation Xrotation
                          }
                        }
                      }
                    }
                  }
                }
              }
            }
          }
          JOINT RightShoulder
          {
            OFFSET -1.380118 23.180309 5.214158
            CHANNELS 3 Zrotation Yrotation Xrotation
            JOINT RightArm
            {
              OFFSET -15.037196 1.2e-05 -5.545604
              CHANNELS 3 Zrotation Yrotation Xrotation
              JOINT RightForeArm
              {
                OFFSET -28.736639 2e-06 -0.002597
                CHANNELS 3 Zrotation Yrotation Xrotation
                JOINT RightHand
                {
                  OFFSET -27.133619 -0.0 0.002613
                  CHANNELS 3 Zrotation Yrotation Xrotation
                  JOINT RightHandThumb1
                  {
                    OFFSET -2.274032 -1.383988 3.163127
                    CHANNELS 3 Zrotation Yrotation Xrotation
                    JOINT RightHandThumb2
                    {
                      OFFSET -4.011429 -1.827466 1.640914
                      CHANNELS 3 Zrotation Yrotation Xrotation
                      JOINT RightHandThumb3
                      {
                        OFFSET -2.794935 -4e-06 -3e-06
                        CHANNELS 3 Zrotation Yrotation Xrotation
                        JOINT RightHandThumbEnd
                        {
                          OFFSET -3.183852 4e-06 1e-06
                          CHANNELS 3 Zrotation Yrotation Xrotation
                        }
                      }
                    }
                  }
                  JOINT RightHandIndex1
                  {
                    OFFSET -3.253266 -0.520057 2.282866
                    CHANNELS 3 Zrotation Yrotation Xrotation
                    JOINT RightHandIndex2
                    {
                      OFFSET -6.341917 0.012471 0.178266
                      CHANNELS 3 Zrotation Yrotation Xrotation
                      JOINT RightHandIndex3
                      {
                        OFFSET -3.654871 -8e-06 -0.0
                        CHANNELS 3 Zrotation Yrotation Xrotation
                        JOINT RightHandIndex4
                        {
                          OFFSET -2.327586 0.0 1e-06
                          CHANNELS 3 Zrotation Yrotation Xrotation
                          JOINT RightHandIndexEnd
                          {
                            OFFSET -2.76179 -0.180656 -0.113078
                            CHANNELS 3 Zrotation Yrotation Xrotation
                          }
                        }
                      }
                    }
                  }
                  JOINT RightHandMiddle1
                  {
                    OFFSET -3.168106 0.246593 1.00103
                    CHANNELS 3 Zrotation Yrotation Xrotation
                    JOINT RightHandMiddle2
                    {
                      OFFSET -6.180828 -0.258836 -1.000895
                      CHANNELS 3 Zrotation Yrotation Xrotation
                      JOINT RightHandMiddle3
                      {
                        OFFSET -4.348901 0.0 -0.0
                        CHANNELS 3 Zrotation Yrotation Xrotation
                        JOINT RightHandMiddle4
                        {
                          OFFSET -3.00024 -4e-06 -2e-06
                          CHANNELS 3 Zrotation Yrotation Xrotation
                          JOINT RightHandMiddleEnd
                          {
                            OFFSET -2.30252 -0.29437 -0.031706
                            CHANNELS 3 Zrotation Yrotation Xrotation
                          }
                        }
                      }
                    }
                  }
                  JOINT RightHandRing1
                  {
                    OFFSET -2.88569 -0.067952 -0.308858
                    CHANNELS 3 Zrotation Yrotation Xrotation
                    JOINT RightHandRing2
                    {
                      OFFSET -5.854198 -0.48613 -1.373731
                      CHANNELS 3 Zrotation Yrotation Xrotation
                      JOINT RightHandRing3
                      {
                        OFFSET -4.33881 -4e-06 -0.0
                        CHANNELS 3 Zrotation Yrotation Xrotation
                        JOINT RightHandRing4
                        {
                          OFFSET -2.654903 -4e-06 4e-06
                          CHANNELS 3 Zrotation Yrotation Xrotation
                          JOINT RightHandRingEnd
                          {
                            OFFSET -1.933568 0.077527 -5.2e-05
                            CHANNELS 3 Zrotation Yrotation Xrotation
                          }
                        }
                      }
                    }
                  }
                  JOINT RightHandPinky1
                  {
                    OFFSET -2.866425 -0.342796 -1.584145
                    CHANNELS 3 Zrotation Yrotation Xrotation
                    JOINT RightHandPinky2
                    {
                      OFFSET -5.091371 -1.332055 -1.772385
                      CHANNELS 3 Zrotation Yrotation Xrotation
                      JOINT RightHandPinky3
                      {
                        OFFSET -3.062664 -4e-06 1e-06
                        CHANNELS 3 Zrotation Yrotation Xrotation
                        JOINT RightHandPinky4
                        {
                          OFFSET -1.546529 4e-06 -2e-06
                          CHANNELS 3 Zrotation Yrotation Xrotation
                          JOINT RightHandPinkyEnd
                          {
                            OFFSET -1.945119 -0.157718 0.057211
                            CHANNELS 3 Zrotation Yrotation Xrotation
                          }
                        }
                      }
                    }
                  }
                }
              }
            }
          }
        }
      }
    }
    JOINT LeftLeg
    {
      OFFSET 10.043214 -8.434526 2.595655
      CHANNELS 3 Zrotation Yrotation Xrotation
      JOINT LeftShin
      {
        OFFSET -1e-06 -43.221752 -0.802913
        CHANNELS 3 Zrotation Yrotation Xrotation
        JOINT LeftFoot
        {
          OFFSET 1e-06 -42.155094 -3.481523
          CHANNELS 3 Zrotation Yrotation Xrotation
          JOINT LeftToeBase
          {
            OFFSET 0.0 -5.059472 13.231529
            CHANNELS 3 Zrotation Yrotation Xrotation
            JOINT LeftToeEnd
            {
              OFFSET -0.009607 -1.647619 6.513017
              CHANNELS 3 Zrotation Yrotation Xrotation
            }
          }
        }
      }
    }
    JOINT RightLeg
    {
      OFFSET -10.047278 -8.29526 2.620317
      CHANNELS 3 Zrotation Yrotation Xrotation
      JOINT RightShin
      {
        OFFSET 1e-06 -43.362206 -0.805556
        CHANNELS 3 Zrotation Yrotation Xrotation
        JOINT RightFoot
        {
          OFFSET 2e-06 -42.117393 -3.478398
          CHANNELS 3 Zrotation Yrotation Xrotation
          JOINT RightToeBase
          {
            OFFSET -0.0 -5.079609 13.284196
            CHANNELS 3 Zrotation Yrotation Xrotation
            JOINT RightToeEnd
            {
              OFFSET 0.009532 -1.634378 6.460591
              CHANNELS 3 Zrotation Yrotation Xrotation
            }
          }
        }
      }
    }
  }
}
MOTION
Frames: 4
Frame Time: 0.03333333333333333
0.0 0.0 0.0 0.0 -0.0 0.0 -0.23658 60.341461 -1.525797 1.276617 0.233121 32.337868 -1.316997 0.111551 19.948223 -1.006458 0.54921 6.241586 -0.931573 0.299722 18.131382 -0.382572 3.036138 -30.388424 -0.733811 -1.690058 -3.503778 1.37861 -3.576298 7.168365 7.7e-05 -2.2e-05 7e-06 0.01304 -0.028792 -0.160194 0.861889 -3.799686 -10.702618 -0.844353 3.749817 -10.70243 0.476541 -19.427723 5.028682 8.568084 -43.372013 -39.838142 3.18462 -68.04084 -2.646118 9.260887 14.876478 4.523294 -5.882085 9.861413 0.702496 -10.93691 -0.360537 7.156209 2e-05 8.774814 8e-06 -15.875897 18.686157 6.660206 -1.844024 2.498495 -2.507267 -10.163523 4.6789 4.621122 -20.975899 -5e-05 2.7e-05 -21.226158 2.451642 -3.593945 0.0 -7e-06 -0.0 -1.362643 2.24075 -0.746301 -21.33482 0.584886 3.008325 -13.821137 -2.7e-05 2.6e-05 -23.887037 -0.249123 -0.839401 -59.594707 2.726374 -1.243031 -0.293978 1.679627 0.833284 -14.218172 0.093222 1.300566 -34.211838 -0.287606 0.967238 -20.033148 0.964529 1.212893 -1e-06 0.0 -0.0 -3.440267 0.788126 0.50171 -15.928205 -3.167272 2.999667 -6.338792 -1e-05 1.1e-05 -18.123348 3.648131 -4.905623 -4e-06 -0.0 0.0 2.269752 32.919895 5.395442 -25.997143 42.617287 -41.400963 2.794553 58.278332 2.451866 -20.918819 -13.240014 5.068434 2.243619 -5.255281 -3.180379 14.283004 -0.826552 6.952394 -2.8e-05 -12.690528 2.3e-05 16.735729 -17.770151 2.407989 1.665645 -1.955913 -2.878278 4.72774 -4.170537 4.993954 11.020422 2.2e-05 2.5e-05 12.108874 -3.735642 -2.866696 -0.0 2e-06 -0.0 1.291936 -1.928478 -1.498047 14.800026 0.567437 3.865623 14.242414 -1.341707 -6.660569 19.63172 0.143953 -0.648118 49.974667 -1.272822 -6.298792 0.352968 -1.51106 -0.031889 20.222664 3.684245 2.316631 18.787102 8e-06 6.4e-05 10.751562 -0.479875 1.397929 0.0 1e-06 0.0 3.27364 0.306094 -0.58 21.486769 11.830234 2.266066 8.162866 3e-06 2.8e-05 18.398891 -3.798982 -4.940429 3e-06 0.0 -1e-06 -2.423113 22.010975 -108.189133 -0.9775 -0.092096 104.928741 -4.298963 -15.176726 -27.502966 1.642365 -1.751963 -1.280959 0.0 0.0 2e-06 6.950987 -18.810877 -111.917412 0.031856 -0.113576 106.603477 0.00343 6.624979 -27.09956 -1.421 0.970866 -1.730663 -0.0 -1e-06 2e-06 
0.0 0.0 0.0 0.0 -0.0 0.0 -0.232902 60.161442 -1.469677 1.395981 0.397849 32.395336 -1.211682 0.079217 20.018894 -0.994779 0.559718 6.20322 -0.800152 0.337308 18.1015 -0.537608 2.984648 -30.439438 -0.719952 -1.870956 -3.488425 1.37325 -3.664147 7.26574 7.7e-05 -2.2e-05 6e-06 0.003876 -0.029038 -0.167185 0.848012 -3.79881 -10.674588 -0.847261 3.74569 -10.669309 0.390893 -19.517561 5.055521 8.921474 -43.296299 -40.129021 2.998723 -68.259003 -2.43345 9.039811 15.046923 4.071455 -5.882218 9.860955 0.703471 -10.936729 -0.360388 7.156621 -1.2e-05 8.774921 -1e-06 -15.816823 18.701399 6.681098 -1.844045 2.498516 -2.507322 -10.163718 4.679015 4.621037 -20.97632 2.8e-05 2e-06 -21.226763 2.451777 -3.59417 -1e-06 -6e-06 1e-06 -1.362723 2.240894 -0.746386 -21.335108 0.584854 3.008309 -13.82141 1.8e-05 7e-06 -23.887804 -0.249042 -0.839597 -59.759361 2.681732 -1.19723 -0.294074 1.679813 0.833192 -14.218285 0.093107 1.300562 -34.212601 -0.287506 0.967193 -20.033543 0.964599 1.212883 0.0 -0.0 0.0 -3.440553 0.788432 0.501526 -15.928164 -3.167507 2.999765 -6.338914 9e-06 7e-06 -18.123886 3.648219 -4.905829 -4e-06 2e-06 -1e-06 2.387614 32.837219 5.438478 -26.261442 42.182999 -41.602619 3.006546 58.750015 2.504652 -20.773367 -13.128536 5.429257 2.243608 -5.254788 -3.179583 14.282813 -0.826708 6.952776 3e-06 -12.690666 5e-06 16.634422 -17.79994 2.424701 1.665674 -1.955925 -2.878337 4.727844 -4.170621 4.993882 11.020637 -3e-06 2e-06 12.109264 -3.735749 -2.866874 0.0 -0.0 0.0 1.292015 -1.928609 -1.498144 14.800213 0.567507 3.8656 14.242712 -1.341734 -6.660738 19.632328 0.14392 -0.648317 49.985992 -1.301711 -6.227835 0.353069 -1.511223 -0.031999 20.2229 3.684374 2.316633 18.787472 -7e-06 1e-06 10.751735 -0.479887 1.397944 -0.0 -2e-06 -0.0 3.273931 0.305833 -0.580214 21.486834 11.830493 2.266166 8.163013 -1e-05 4e-06 18.399406 -3.798983 -4.94067 3e-06 -3e-06 -2e-06 -2.392328 21.850508 -108.349937 -0.931662 -0.04572 105.179855 -4.197248 -15.284666 -27.818697 1.645037 -1.755213 -1.362004 0.0 0.0 4e-06 6.89958 -18.96419 -112.181015 0.010128 -0.074786 106.855156 0.099267 6.620749 -27.245758 -1.42366 0.948365 -1.699575 0.0 -0.0 -4e-06 
0.0 0.0 0.0 0.0 -0.0 0.0 -0.186664 60.020149 -1.456269 1.504366 0.527682 32.369068 -1.124594 0.05186 20.076027 -0.94305 0.561573 6.1991 -0.744403 0.357206 18.091906 -0.626887 3.010557 -30.432076 -0.765798 -2.015515 -3.491188 1.298781 -3.731966 7.365626 7.7e-05 -2.2e-05 5e-06 -0.016157 -0.015361 -0.168752 0.82677 -3.78881 -10.6725 -0.864919 3.760414 -10.660963 0.366746 -19.568579 5.078853 9.182096 -43.135601 -40.234077 3.081846 -68.551903 -2.491248 8.842022 15.244069 3.544661 -5.881993 9.861496 0.702257 -10.936852 -0.360615 7.15614 7e-06 8.774793 7e-06 -15.827604 18.748592 6.663599 -1.84403 2.498497 -2.507262 -10.163563 4.678912 4.621113 -20.975977 -2.2e-05 -2e-05 -21.226294 2.451646 -3.594001 -2e-06 -3e-06 -0.0 -1.362677 2.240746 -0.746299 -21.334846 0.58493 3.008292 -13.821179 -1.7e-05 -1.5e-05 -23.887171 -0.24914 -0.839501 -59.911598 2.670237 -1.189365 -0.294019 1.679621 0.833282 -14.218176 0.093255 1.300562 -34.211979 -0.287608 0.967129 -20.033226 0.964501 1.212831 1e-06 2e-06 -0.0 -3.440338 0.788135 0.5017 -15.928168 -3.16723 2.999667 -6.338809 -6e-06 -8e-06 -18.123459 3.648135 -4.905685 -5e-06 -1e-06 -1e-06 2.405817 32.91452 5.412019 -26.303185 41.64621 -41.382915 2.839205 59.291889 2.323423 -20.51301 -13.250509 6.010844 2.243466 -5.255436 -3.180637 14.282958 -0.826443 6.952312 -8e-06 -12.690467 2.6e-05 16.60146 -17.817745 2.481716 1.665656 -1.955914 -2.878267 4.727762 -4.170528 4.99396 11.020434 4e-06 -3e-06 12.108932 -3.735636 -2.866707 0.0 0.0 1e-06 1.291972 -1.928453 -1.498039 14.800016 0.567379 3.865592 14.242455 -1.341714 -6.660588 19.631752 0.143955 -0.648209 50.071053 -1.324868 -6.166429 0.35301 -1.51102 -0.031883 20.222643 3.684159 2.31658 18.787113 -1e-06 -1.2e-05 10.751561 -0.479865 1.397878 0.0 -0.0 0.0 3.273711 0.30612 -0.580003 21.48671 11.830106 2.266022 8.162853 -7e-06 -6e-06 18.398895 -3.798949 -4.940508 3e-06 -3e-06 -1e-06 -2.338249 21.708 -108.438408 -0.887423 -0.001577 105.420311 -4.161815 -15.297845 -27.978451 1.650568 -1.748568 -1.417997 -0.0 -1e-06 -1e-06 6.91303 -19.195251 -112.380463 -0.005204 -0.05148 107.09864 0.171025 6.755596 -27.331259 -1.423007 0.943894 -1.643194 -0.0 -0.0 1e-06 
0.0 0.0 0.0 0.0 -0.0 0.0 -0.14845 59.926285 -1.451097 1.588915 0.594356 32.327595 -1.072259 0.032548 20.133423 -0.888659 0.564156 6.209755 -0.721763 0.369038 18.069075 -0.659182 3.030867 -30.418043 -0.8325 -2.088366 -3.491292 1.235353 -3.743768 7.46089 7.7e-05 -2.2e-05 9e-06 -0.035995 -0.000809 -0.17023 0.810408 -3.780756 -10.687635 -0.887437 3.779495 -10.672183 0.30951 -19.550686 5.116339 9.4793 -43.019135 -40.401459 3.072831 -68.796654 -2.506851 8.712722 15.401297 3.437902 -5.882204 9.861053 0.703037 -10.936769 -0.360431 7.156423 -6e-06 8.774906 -7e-06 -15.840469 18.783785 6.645473 -1.84404 2.49851 -2.5073 -10.163676 4.678995 4.621068 -20.976248 1e-05 1.8e-05 -21.22665 2.451764 -3.594109 0.0 -6e-06 1e-06 -1.362703 2.24087 -0.746353 -21.335052 0.584851 3.008329 -13.82136 8e-06 1.4e-05 -23.887657 -0.249046 -0.839542 -60.04623 2.671237 -1.178458 -0.294055 1.67978 0.833224 -14.21827 0.093119 1.300575 -34.21246 -0.287536 0.967207 -20.033472 0.964577 1.212889 -3e-06 3e-06 -1e-06 -3.440483 0.788369 0.501586 -15.928183 -3.167476 2.999753 -6.338893 4e-06 8e-06 -18.123795 3.648213 -4.905771 -4e-06 3e-06 -2e-06 2.364183 33.007496 5.385478 -26.32128 41.170372 -41.129959 2.541557 59.773212 2.080137 -20.306541 -13.502567 6.681877 2.243566 -5.254872 -3.17994 14.28284 -0.826648 6.952596 1e-06 -12.69065 -9e-06 16.599167 -17.855354 2.555502 1.665668 -1.955926 -2.878312 4.727821 -4.170609 4.993899 11.020588 0.0 0.0 12.109187 -3.735749 -2.866849 0.0 -3e-06 0.0 1.291999 -1.928586 -1.498116 14.800173 0.567497 3.865611 14.24265 -1.341747 -6.660701 19.63221 0.143924 -0.64829 50.213238 -1.367817 -6.13367 0.35305 -1.5112 -0.031971 20.222841 3.684362 2.316649 18.787388 5e-06 1e-06 10.751693 -0.479875 1.397934 0.0 3e-06 -1e-06 3.273865 0.305876 -0.580167 21.486834 11.830463 2.26618 8.16297 -1e-06 1e-06 18.399277 -3.798981 -4.940641 2e-06 -2e-06 0.0 -2.267565 21.5767 -108.467323 -0.839918 0.025458 105.631973 -4.168846 -15.29206 -28.045345 1.653422 -1.746537 -1.462103 -0.0 0.0 -3e-06 6.912641 -19.419523 -112.4879 -0.021478 -0.037922 107.282486 0.187746 6.902466 -27.427454 -1.420529 0.947948 -1.624794 0.0 -0.0 -2e-06 
